<svg xmlns="http://www.w3.org/2000/svg" viewBox="0 0 249.57 202.69"><path d="M12.58,66.26H70.81c.73,7.59.36,14.78.28,22.43H58.7c-.94,3.06-1.25,40.13-.47,45.23,3.89,1.36,8.12.08,12.12.85,1,2.56,1.22,16.13.39,21.45a21.58,21.58,0,0,1-2.88.36q-27.63,0-55.28,0V134.75l12.56-.46c.89-4.79.68-42.48-.27-45.46H12.58Z" transform="translate(-12.58 -10.22)"/><path d="M145,10.22l7.2,1.34c27.53,5.1,49.59,19,66.35,41.32.62.83,1.16,1.72,1.7,2.6.11.19,0,.49.06,1a3.76,3.76,0,0,1-5-1.12c-1.62-2-3.21-4.08-4.86-6.08a93,93,0,0,0-15-14.14l-10.16,5.71c4,5.21,8.3,9.74,11.53,15.82L192.6,57c-1.92-2.52-3.67-4.93-5.53-7.25s-3.82-4.52-5.74-6.79l-17.27,6.25,3,7.5-4,.28-3.76-6.47-23.07,3-1,3.23L132,57c-.37-1.34-.67-2.42-.94-3.44L107.46,50.6,104,56.88h-4l2.78-7.59L86.09,43.43a33.89,33.89,0,0,0-3,2.92c-2.36,2.92-4.6,5.94-6.92,8.9-1.66,2.09-1.78,2.1-5.4,1.28,2.73-5.55,6.94-10,10.77-15.21l-9.82-5.69C63.12,41.1,57.06,49,50.78,56.8H46.47a37.46,37.46,0,0,1,1.94-3.34c16.8-22.93,39.16-37,67.2-41.91,2.27-.4,4.53-.89,6.8-1.33ZM123.31,26.44c-6.11,6.66-12,15.8-12.79,19.89,6.67,1.27,13.31,2.55,20.45,1.88.65-7.06,1-13.8-.16-20.73Zm20.36,0L136,27.66V47.87c5.29,1.08,15.69-.06,20.62-2.3C153.29,38.67,148.68,32.68,143.67,26.44Zm10.43-3.88L148.72,25l13.17,19.68c5.57-.83,10.47-2.84,15.66-5.24C170.28,32.45,162.84,26.75,154.1,22.56ZM104.74,45.23l13.42-20.44-5.19-2c-8.16,3.84-19.52,12.28-23.22,17.36Zm50-28.68a96.36,96.36,0,0,0-42.48,0C123,25.22,143.93,24.9,154.76,16.55Zm-70,21.21c4.23-3.52,7.82-6.69,11.62-9.62s7.67-5.52,11.51-8.25c-1.32-2.14-3-1.73-4.63-1.16a105.26,105.26,0,0,0-21.55,9.81c-1.93,1.2-3.81,2.49-6.33,4.14Zm73.89-18.84,24.06,18.34,8.17-4.61c-.38-.57-.51-1-.79-1.17a86.73,86.73,0,0,0-27.59-12.94C161.51,18.29,160.37,18.72,158.62,18.92Z" transform="translate(-12.58 -10.22)"/><path d="M213.18,158.34a56.36,56.36,0,0,1-30.56-8c-9.78-5.8-15.26-14.53-17.47-25.47a66,66,0,0,1,1.36-30.74c3.17-11.67,10.62-19.77,21.81-24.18,18.5-7.29,36.8-6.61,54.45,2.72a32.18,32.18,0,0,1,16.41,19.84c4.23,14.38,4.19,28.57-1.7,42.55-3.21,7.64-8.82,12.94-15.92,16.93S223,158.67,213.18,158.34ZM227.7,110.7c-.31-4.28-.53-8.93-1-13.55-.44-4.23-3.18-6.71-7-7.94a21.34,21.34,0,0,0-11.49-.41c-4.8,1.12-8.08,3.71-8.57,8.74-.55,5.64-.86,11.33-.9,17a74.83,74.83,0,0,0,.95,11.57,9.52,9.52,0,0,0,8,8.43,28.09,28.09,0,0,0,7.67.77c6.32-.49,11.12-3.43,11.53-10.68C227.11,120.11,227.4,115.6,227.7,110.7Z" transform="translate(-12.58 -10.22)"/><path d="M159.11,68.07c-.08,10.22.39,20.27,0,30.81-6.6.22-12.77.1-18.91.08-7.48-10.13-18.1-12.72-29.63-13.06a11.19,11.19,0,0,0-4.87,1c-2.56,1.19-2.65,3.69-.22,5.06a25.2,25.2,0,0,0,5.42,2.08c9.83,2.89,19.69,5.66,29.51,8.58,7,2.07,12.39,6.33,16.76,12.07,9.84,12.92,4.63,31.61-8.94,38.79a41.47,41.47,0,0,1-16.74,4.67c-11.37.78-22.24-1-32.33-6.58a9,9,0,0,0-1.42-.63,2.87,2.87,0,0,0-.85,0l-.65,5.37c-6.58.38-13,.22-19.28.24-1.57-3.57-1.81-27.37-.47-33,2.8-.75,13.12-.92,17.91-.26,4.54,7.25,11.43,11.24,19.79,12.93A31.72,31.72,0,0,0,132.66,135c1.18-2.13.4-3.33-1.23-4.07a35,35,0,0,0-4-1.42c-10-3.09-20.09-6.13-30.13-9.23a38.62,38.62,0,0,1-12.9-7c-6.82-5.49-9.49-12.76-9.08-21.28.57-12,6.9-19.84,18.09-23.7,14.59-5,28.84-3.7,42.66,3,.89.43,1.8.8,3,1.31l.55-4.07C142.22,67.44,153.28,67.18,159.11,68.07Z" transform="translate(-12.58 -10.22)"/><path d="M47.08,165.92a5.26,5.26,0,0,1,1.4-.53,18.38,18.38,0,0,1,2.52.16c5.88,8,12.34,15.55,20.94,21.73l10-5.53c-3.77-5.22-7.38-10.2-11-15.22,3.1-1.78,3.69-1.65,5.42.6,2.69,3.49,5.42,6.94,8.13,10.42.47.61.9,1.27,1.41,2l17.79-6.15-2.71-7c1.71-1,1.71-1,3.94-.46l3.36,6,23.13-2.77.93-3.52h3.48l1,3.48L160.14,172l3.45-6.28,4.25-.27c-1.17,3-2.1,5.28-3.09,7.8l17,6c3.83-3.32,6.6-7.38,9.35-11.45,1.19-1.77,2.54-2.94,4.81-2.28a4.72,4.72,0,0,1,1,.62c-2.59,5.58-7,10-10.77,15.28l10.16,5.79c1.45-1.12,2.84-2.06,4.07-3.17a108.17,108.17,0,0,0,15-16.31c1.94-2.65,2.19-2.67,5.93-1.62A97.66,97.66,0,0,1,195.85,193,102.35,102.35,0,0,1,141,212.7C93.24,215.64,58.75,187,47.08,165.92Zm97.44,30.4c6.06-6.58,12.27-16.54,12.52-20-6.61-1.81-13.38-2.07-20.33-2.42v21.29Zm-12.94-22.11c-5.3-.56-16.49.86-20.79,2.63a103.85,103.85,0,0,0,13.08,19.47l7.71-1.1Zm-26,3.35a77.11,77.11,0,0,0-15.71,5.69c7.35,7.1,14.93,12.81,23.54,16.89,1.12-.42,2-.68,2.8-1.06s1.52-.84,2.49-1.39Zm49,22.52c9.12-4.19,20.4-12.81,22.86-17.46a54.81,54.81,0,0,0-14.76-4.88c-4.39,6.84-8.61,13.41-12.94,20.17Zm-42.15,6.12a96.62,96.62,0,0,0,43.23,0C145.61,198.13,124.87,197.48,112.43,206.2Zm70.91-21.06-23.18,17.94c1.79,1.48,1.81,1.53,3.48,1a91.92,91.92,0,0,0,25.62-11.82,34.51,34.51,0,0,0,2.83-2.43ZM76.39,190.08c5.53,5.2,22.42,13.41,29.11,14.35,1.32.19,2.24-.17,2.53-1.28L84.79,185.28Z" transform="translate(-12.58 -10.22)"/></svg>