<svg height="512pt" viewBox="-16 0 512 512.00013" width="512pt" xmlns="http://www.w3.org/2000/svg"><path d="m465 0h-300c-8.289062 0-15 6.710938-15 15v15h195c8.292969 0 15 6.710938 15 15v15h45c8.292969 0 15 6.710938 15 15s-6.707031 15-15 15h-45v30h45c8.292969 0 15 6.710938 15 15s-6.707031 15-15 15h-45v30h45c8.292969 0 15 6.710938 15 15s-6.707031 15-15 15h-45v30h45c8.292969 0 15 6.710938 15 15s-6.707031 15-15 15h-45v30h45c8.292969 0 15 6.710938 15 15s-6.707031 15-15 15h-45v60h105c8.292969 0 15-6.710938 15-15v-360c0-8.289062-6.707031-15-15-15zm0 0"/><path d="m180 270c-33.089844 0-60 26.910156-60 60s26.910156 60 60 60 60-26.910156 60-60-26.910156-60-60-60zm0 90c-16.539062 0-30-13.460938-30-30s13.460938-30 30-30 30 13.460938 30 30-13.460938 30-30 30zm0 0"/><path d="m315 60h-300c-8.289062 0-15 6.710938-15 15v360c0 8.289062 6.710938 15 15 15h90v-70.429688c-9.4375-14.230468-15-31.25-15-49.570312 0-49.628906 40.371094-90 90-90s90 40.371094 90 90c0 18.320312-5.5625 35.339844-15 49.570312v70.429688h60c8.292969 0 15-6.710938 15-15v-360c0-8.289062-6.707031-15-15-15zm-60 150h-180c-8.289062 0-15-6.710938-15-15s6.710938-15 15-15h180c8.292969 0 15 6.710938 15 15s-6.707031 15-15 15zm0-60h-180c-8.289062 0-15-6.710938-15-15s6.710938-15 15-15h180c8.292969 0 15 6.710938 15 15s-6.707031 15-15 15zm0 0"/><path d="m135 407.484375v95.839844c0 3.199219 1.761719 6.140625 4.582031 7.648437 2.820313 1.511719 6.246094 1.34375 8.90625-.429687l31.511719-21.007813 31.511719 21.007813c2.660156 1.773437 6.085937 1.9375 8.90625.429687 2.820312-1.507812 4.582031-4.449218 4.582031-7.648437v-95.839844c-13.292969 7.75-28.535156 12.515625-45 12.515625s-31.707031-4.765625-45-12.515625zm0 0"/></svg>