<svg clip-rule="evenodd" fill-rule="evenodd" height="512" stroke-linejoin="round" stroke-miterlimit="2" viewBox="0 0 24 24" width="512" xmlns="http://www.w3.org/2000/svg"><g transform="translate(-324 -216)"><path d="m341.5 227.866c.276-.478.888-.642 1.366-.366.529.305 1.203.695 1.732 1 .478.276.642.888.366 1.366-1.029 1.783-3.335 5.776-3.882 6.724-.077.134-.185.249-.315.334-.354.234-1.131.747-1.866 1.232-.316.209-.723.221-1.051.032-.328-.19-.521-.548-.498-.926.053-.88.108-1.808.134-2.232.009-.155.054-.306.132-.44.547-.948 2.853-4.941 3.882-6.724zm-6.072 10.134c-.065-.277-.09-.566-.073-.858.053-.879.109-1.808.134-2.232.028-.465.164-.917.397-1.32l3.882-6.724c.828-1.435 2.663-1.926 4.098-1.098l.134.077v-4.845c0-1.657-1.343-3-3-3h-10c-.796 0-1.559.316-2.121.879-.563.562-.879 1.325-.879 2.121v14c0 .796.316 1.559.879 2.121.562.563 1.325.879 2.121.879zm-3.428-6h2.175c.552 0 1-.448 1-1s-.448-1-1-1h-2.175c-.552 0-1 .448-1 1s.448 1 1 1zm0-4h4.35c.552 0 1-.448 1-1s-.448-1-1-1h-4.35c-.552 0-1 .448-1 1s.448 1 1 1zm0-4h6c.552 0 1-.448 1-1s-.448-1-1-1h-6c-.552 0-1 .448-1 1s.448 1 1 1z"/></g></svg>